<svg width="70" height="70" viewBox="0 0 70 70" fill="none" xmlns="http://www.w3.org/2000/svg">
<g clip-path="url(#clip0_471_2011)">
<path d="M19.4643 11.4297C17.3331 11.4297 15.2892 12.2763 13.7822 13.7833C12.2752 15.2903 11.4286 17.3342 11.4286 19.4654V50.5368C11.4286 52.668 12.2752 54.7119 13.7822 56.2189C15.2892 57.7259 17.3331 58.5725 19.4643 58.5725H50.5357C52.6669 58.5725 54.7108 57.7259 56.2178 56.2189C57.7248 54.7119 58.5714 52.668 58.5714 50.5368V19.4654C58.5714 17.3342 57.7248 15.2903 56.2178 13.7833C54.7108 12.2763 52.6669 11.4297 50.5357 11.4297H19.4643ZM17.8571 24.2868C17.8571 23.1502 18.3087 22.0601 19.1124 21.2564C19.9161 20.4526 21.0062 20.0011 22.1428 20.0011H47.8571C48.9938 20.0011 50.0839 20.4526 50.8876 21.2564C51.6913 22.0601 52.1428 23.1502 52.1428 24.2868V28.5725C52.1428 29.7092 51.6913 30.7993 50.8876 31.603C50.0839 32.4067 48.9938 32.8583 47.8571 32.8583H22.1428C21.0062 32.8583 19.9161 32.4067 19.1124 31.603C18.3087 30.7993 17.8571 29.7092 17.8571 28.5725V24.2868ZM22.1428 23.2154C21.8587 23.2154 21.5862 23.3283 21.3852 23.5292C21.1843 23.7301 21.0714 24.0027 21.0714 24.2868V28.5725C21.0714 28.8567 21.1843 29.1292 21.3852 29.3302C21.5862 29.5311 21.8587 29.644 22.1428 29.644H47.8571C48.1413 29.644 48.4138 29.5311 48.6147 29.3302C48.8157 29.1292 48.9286 28.8567 48.9286 28.5725V24.2868C48.9286 24.0027 48.8157 23.7301 48.6147 23.5292C48.4138 23.3283 48.1413 23.2154 47.8571 23.2154H22.1428ZM19.4643 37.144H31.25C31.6762 37.144 32.085 37.3133 32.3864 37.6147C32.6878 37.9161 32.8571 38.3249 32.8571 38.7511C32.8571 39.1774 32.6878 39.5861 32.3864 39.8875C32.085 40.1889 31.6762 40.3583 31.25 40.3583H19.4643C19.038 40.3583 18.6292 40.1889 18.3279 39.8875C18.0265 39.5861 17.8571 39.1774 17.8571 38.7511C17.8571 38.3249 18.0265 37.9161 18.3279 37.6147C18.6292 37.3133 19.038 37.144 19.4643 37.144ZM17.8571 46.7868C17.8571 46.3606 18.0265 45.9518 18.3279 45.6504C18.6292 45.349 19.038 45.1797 19.4643 45.1797H31.25C31.6762 45.1797 32.085 45.349 32.3864 45.6504C32.6878 45.9518 32.8571 46.3606 32.8571 46.7868C32.8571 47.2131 32.6878 47.6219 32.3864 47.9233C32.085 48.2247 31.6762 48.394 31.25 48.394H19.4643C19.038 48.394 18.6292 48.2247 18.3279 47.9233C18.0265 47.6219 17.8571 47.2131 17.8571 46.7868ZM41.9643 36.0725H48.3928C50.4628 36.0725 52.1428 37.7525 52.1428 39.8225V46.2511C52.1428 47.2457 51.7478 48.1995 51.0445 48.9028C50.3412 49.606 49.3874 50.0011 48.3928 50.0011H41.9643C40.9697 50.0011 40.0159 49.606 39.3126 48.9028C38.6094 48.1995 38.2143 47.2457 38.2143 46.2511V39.8225C38.2143 37.7525 39.8943 36.0725 41.9643 36.0725ZM41.4286 39.8225C41.4286 39.6805 41.485 39.5442 41.5855 39.4437C41.6859 39.3433 41.8222 39.2868 41.9643 39.2868H48.3928C48.5349 39.2868 48.6712 39.3433 48.7717 39.4437C48.8721 39.5442 48.9286 39.6805 48.9286 39.8225V46.2511C48.9286 46.3932 48.8721 46.5295 48.7717 46.6299C48.6712 46.7304 48.5349 46.7868 48.3928 46.7868H41.9643C41.8222 46.7868 41.6859 46.7304 41.5855 46.6299C41.485 46.5295 41.4286 46.3932 41.4286 46.2511V39.8225Z" fill="#E33AFF"/>
</g>
<defs>
<clipPath id="clip0_471_2011">
<rect width="70" height="70" fill="white"/>
</clipPath>
</defs>
</svg>
