<svg width="60" height="60" viewBox="0 0 60 60" fill="none" xmlns="http://www.w3.org/2000/svg">
<path fill-rule="evenodd" clip-rule="evenodd" d="M19.2942 21.6885C17.0635 21.7055 14.931 22.608 13.3657 24.1974C11.8005 25.7868 10.9307 27.9328 10.9478 30.1635C10.9648 32.3941 11.8673 34.5267 13.4567 36.0919C15.046 37.6572 17.1921 38.527 19.4228 38.5099H27.8356V21.6928L19.2942 21.6885ZM42.887 21.6885C45.0983 21.7437 47.1987 22.668 48.7331 24.2611C50.2676 25.8542 51.1126 27.9877 51.085 30.1994C51.0573 32.4112 50.1593 34.5229 48.5856 36.0772C47.0118 37.6315 44.8889 38.503 42.677 38.503C40.4651 38.503 38.3423 37.6315 36.7685 36.0772C35.1947 34.5229 34.2967 32.4112 34.2691 30.1994C34.2415 27.9877 35.0865 25.8542 36.621 24.2611C38.1554 22.668 40.2558 21.7437 42.467 21.6885H42.887ZM43.8428 0.769911C45.7654 0.769911 47.6093 1.53367 48.9688 2.89318C50.3283 4.25268 51.092 6.09657 51.092 8.0192C51.092 9.94183 50.3283 11.7857 48.9688 13.1452C47.6093 14.5047 45.7654 15.2685 43.8428 15.2685H42.9599C42.7742 15.2651 42.5885 15.2651 42.4028 15.2685H34.2642V0.765625H43.8385L43.8428 0.769911ZM11.0142 8.01705C11.0142 4.0142 14.2628 0.765625 18.2656 0.765625H27.8356V15.2642H18.2656C17.3135 15.2648 16.3707 15.0777 15.4909 14.7138C14.6112 14.3498 13.8118 13.8161 13.1383 13.1431C12.4649 12.4701 11.9307 11.6709 11.5662 10.7914C11.2018 9.91186 11.0142 8.96912 11.0142 8.01705ZM18.2656 44.9428C16.343 44.9428 14.4991 45.7065 13.1396 47.066C11.7801 48.4255 11.0163 50.2694 11.0163 52.1921C11.0163 54.1147 11.7801 55.9586 13.1396 57.3181C14.4991 58.6776 16.343 59.4413 18.2656 59.4413H19.4228C21.654 59.4413 23.7938 58.555 25.3715 56.9773C26.9493 55.3995 27.8356 53.2597 27.8356 51.0285V44.9428H18.2656Z" fill="#E33AFF"/>
</svg>
