<svg width="70" height="70" viewBox="0 0 70 70" fill="none" xmlns="http://www.w3.org/2000/svg">
<path d="M52.5 35V15H22.5V45H40V27.5H10V57.5H30M40 67.5L55 52.5M57.5 45C56.5111 45 55.5444 45.2932 54.7221 45.8427C53.8999 46.3921 53.259 47.173 52.8806 48.0866C52.5022 49.0002 52.4031 50.0055 52.5961 50.9755C52.789 51.9454 53.2652 52.8363 53.9645 53.5355C54.6637 54.2348 55.5546 54.711 56.5245 54.9039C57.4945 55.0969 58.4998 54.9978 59.4134 54.6194C60.327 54.241 61.1079 53.6001 61.6573 52.7779C62.2068 51.9556 62.5 50.9889 62.5 50" stroke="#E33AFF" stroke-width="5"/>
</svg>
