<svg width="70" height="70" viewBox="0 0 70 70" fill="none" xmlns="http://www.w3.org/2000/svg">
<g clip-path="url(#clip0_356_1893)">
<path d="M35.0001 8.74678C38.8793 8.74678 42.5368 9.69178 45.7538 11.3689L47.5213 9.60136C47.7904 9.32279 48.1122 9.10059 48.4681 8.94773C48.8239 8.79487 49.2067 8.71441 49.5939 8.71105C49.9812 8.70768 50.3653 8.78148 50.7237 8.92813C51.0822 9.07478 51.4078 9.29136 51.6817 9.56521C51.9555 9.83906 52.1721 10.1647 52.3187 10.5232C52.4654 10.8816 52.5392 11.2657 52.5358 11.6529C52.5325 12.0402 52.452 12.4229 52.2991 12.7788C52.1463 13.1346 51.9241 13.4565 51.6455 13.7255L50.6247 14.7464C53.0547 16.9324 54.997 19.6057 56.3252 22.5922C57.6534 25.5788 58.3376 28.8116 58.3334 32.0801V55.4134C58.3334 57.7341 57.4116 59.9597 55.7706 61.6006C54.1297 63.2416 51.9041 64.1634 49.5834 64.1634H20.4168C18.0961 64.1634 15.8705 63.2416 14.2296 61.6006C12.5886 59.9597 11.6668 57.7341 11.6668 55.4134V32.0801C11.6633 28.8118 12.3482 25.5794 13.6769 22.5934C15.0056 19.6074 16.9483 16.9347 19.3784 14.7493L18.3547 13.7284C17.8074 13.1815 17.4998 12.4396 17.4995 11.6659C17.4992 10.8922 17.8063 10.1501 18.3532 9.60282C18.9001 9.05553 19.642 8.74792 20.4157 8.74765C21.1894 8.74737 21.9316 9.05446 22.4788 9.60136L24.2463 11.3689C27.5673 9.64128 31.2566 8.74172 35.0001 8.74678ZM52.5001 40.8301H17.5001V55.4134C17.5001 56.187 17.8074 56.9289 18.3544 57.4758C18.9013 58.0228 19.6432 58.3301 20.4168 58.3301H49.5834C50.357 58.3301 51.0988 58.0228 51.6458 57.4758C52.1928 56.9289 52.5001 56.187 52.5001 55.4134V40.8301ZM35.0001 14.5801C30.4723 14.5799 26.1207 16.3347 22.8596 19.4756C19.5984 22.6166 17.6816 26.8993 17.5118 31.4239L17.5001 32.0801V34.9968H52.5001V32.0801C52.5001 27.4388 50.6564 22.9876 47.3745 19.7057C44.0926 16.4239 39.6414 14.5801 35.0001 14.5801ZM26.2501 23.3301C27.0236 23.3301 27.7655 23.6374 28.3125 24.1844C28.8595 24.7314 29.1668 25.4732 29.1668 26.2468C29.1668 27.0203 28.8595 27.7622 28.3125 28.3092C27.7655 28.8562 27.0236 29.1634 26.2501 29.1634C25.4765 29.1634 24.7347 28.8562 24.1877 28.3092C23.6407 27.7622 23.3334 27.0203 23.3334 26.2468C23.3334 25.4732 23.6407 24.7314 24.1877 24.1844C24.7347 23.6374 25.4765 23.3301 26.2501 23.3301ZM43.7501 23.3301C44.5236 23.3301 45.2655 23.6374 45.8125 24.1844C46.3595 24.7314 46.6668 25.4732 46.6668 26.2468C46.6668 27.0203 46.3595 27.7622 45.8125 28.3092C45.2655 28.8562 44.5236 29.1634 43.7501 29.1634C42.9765 29.1634 42.2347 28.8562 41.6877 28.3092C41.1407 27.7622 40.8334 27.0203 40.8334 26.2468C40.8334 25.4732 41.1407 24.7314 41.6877 24.1844C42.2347 23.6374 42.9765 23.3301 43.7501 23.3301Z" fill="#E33AFF"/>
</g>
<defs>
<clipPath id="clip0_356_1893">
<rect width="70" height="70" fill="white"/>
</clipPath>
</defs>
</svg>
