<svg width="70" height="70" viewBox="0 0 70 70" fill="none" xmlns="http://www.w3.org/2000/svg">
<g clip-path="url(#clip0_356_1889)">
<path d="M38.1034 19.4978L40.2764 18.6053C42.0409 17.9053 44.3218 17.1907 47.0139 17.6428C52.5293 18.5703 56.3326 21.5482 58.5989 25.4974C59.4739 27.0199 58.768 29.0265 57.1347 29.6653C55.7354 30.2127 54.5393 31.1788 53.7099 32.4316C52.8804 33.6844 52.458 35.1628 52.5005 36.6647C52.5429 38.1666 53.0481 39.6187 53.947 40.8227C54.8459 42.0266 56.0947 42.9237 57.5226 43.3911C59.0334 43.887 59.8851 45.564 59.3893 47.0749C58.1001 50.989 56.2451 54.6028 54.0489 57.5195C51.8789 60.4011 49.2305 62.7928 46.2818 63.9624C44.3218 64.7382 42.2276 64.429 40.2209 63.9245L39.0309 63.6036L37.3247 63.1282L36.3943 62.8978C35.9379 62.783 35.4705 62.7175 35.0001 62.7024C34.6209 62.7024 34.1689 62.7724 33.6059 62.8978L32.6726 63.1311L30.3772 63.767C28.1955 64.359 25.8739 64.817 23.7184 63.9624C20.0055 62.4924 16.7301 59.0624 14.2539 55.017C11.5731 50.5621 9.80435 45.6188 9.05053 40.4745C8.38844 35.942 8.74719 30.8524 10.8443 26.5474C13.0026 22.1111 16.9576 18.6578 22.9864 17.6428C25.4364 17.2315 27.5422 17.7828 29.228 18.4157L30.1934 18.7949L31.8968 19.4978C33.0634 19.9557 33.9822 20.224 35.0001 20.224C36.0151 20.224 36.9368 19.9557 38.1034 19.4978ZM29.7209 24.914L28.7059 24.497C26.5739 23.6045 25.3868 23.1553 23.9518 23.3945C19.8918 24.0799 17.4739 26.2586 16.0884 29.1024C14.6418 32.0715 14.2801 35.904 14.8226 39.6315C15.4876 44.1757 17.1239 48.5274 19.2297 51.9749C21.3822 55.4895 23.8118 57.7265 25.8651 58.5374C26.5651 58.8145 27.5714 58.5957 28.5047 58.3099L29.7968 57.884L30.1526 57.7732L31.4155 57.4232C32.5414 57.1315 33.8101 56.869 35.0001 56.869C36.1872 56.869 37.4589 57.1315 38.5847 57.4232L39.8476 57.7732L40.2034 57.884L41.4955 58.3099C42.4289 58.5957 43.4351 58.8145 44.1351 58.5374C45.7305 57.9074 47.5855 56.4024 49.3851 54.0107C50.7268 52.2315 51.9518 50.0674 52.9522 47.6611C51.0315 46.4898 49.4445 44.844 48.3438 42.882C47.243 40.92 46.6655 38.7079 46.6668 36.4582C46.6668 32.2378 48.6559 28.4899 51.7418 26.0895C50.3622 24.777 48.513 23.8115 46.0484 23.3945C44.7564 23.1786 43.6655 23.5199 41.9068 24.2432L41.2943 24.497C39.7164 25.159 37.5726 26.0574 35.0001 26.0574C32.9439 26.0574 31.1589 25.4828 29.7209 24.914ZM34.3234 8.07321C37.1701 5.22362 41.5422 4.97863 42.5718 6.01113C43.6043 7.04071 43.3593 11.4128 40.5097 14.2595C37.663 17.1061 33.2909 17.3511 32.2614 16.3215C31.2289 15.292 31.4739 10.9199 34.3234 8.07321Z" fill="#E33AFF"/>
</g>
<defs>
<clipPath id="clip0_356_1889">
<rect width="70" height="70" fill="white"/>
</clipPath>
</defs>
</svg>
