<svg width="70" height="70" viewBox="0 0 70 70" fill="none" xmlns="http://www.w3.org/2000/svg">
<path d="M23.3333 35C22.5069 35 21.8147 35.28 21.2567 35.84C20.6986 36.4 20.4186 37.0922 20.4167 37.9167V46.6667C20.4167 47.4931 20.6967 48.1862 21.2567 48.7463C21.8167 49.3062 22.5089 49.5853 23.3333 49.5833C24.1597 49.5833 24.8529 49.3033 25.4129 48.7433C25.9729 48.1833 26.2519 47.4911 26.25 46.6667V37.9167C26.25 37.0903 25.97 36.3981 25.41 35.84C24.85 35.2819 24.1578 35.0019 23.3333 35ZM46.6667 20.4167C45.8403 20.4167 45.1481 20.6967 44.59 21.2567C44.0319 21.8167 43.7519 22.5089 43.75 23.3333V46.6667C43.75 47.4931 44.03 48.1862 44.59 48.7463C45.15 49.3062 45.8422 49.5853 46.6667 49.5833C47.4931 49.5833 48.1862 49.3033 48.7463 48.7433C49.3062 48.1833 49.5853 47.4911 49.5833 46.6667V23.3333C49.5833 22.5069 49.3033 21.8147 48.7433 21.2567C48.1833 20.6986 47.4911 20.4186 46.6667 20.4167ZM35 40.8333C34.1736 40.8333 33.4814 41.1133 32.9233 41.6733C32.3653 42.2333 32.0853 42.9256 32.0833 43.75V46.6667C32.0833 47.4931 32.3633 48.1862 32.9233 48.7463C33.4833 49.3062 34.1756 49.5853 35 49.5833C35.8264 49.5833 36.5196 49.3033 37.0796 48.7433C37.6396 48.1833 37.9186 47.4911 37.9167 46.6667V43.75C37.9167 42.9236 37.6367 42.2314 37.0767 41.6733C36.5167 41.1153 35.8244 40.8353 35 40.8333ZM14.5833 61.25C12.9792 61.25 11.6064 60.6793 10.465 59.5379C9.32361 58.3965 8.75194 57.0228 8.75 55.4167V14.5833C8.75 12.9792 9.32167 11.6064 10.465 10.465C11.6083 9.32361 12.9811 8.75194 14.5833 8.75H55.4167C57.0208 8.75 58.3946 9.32167 59.5379 10.465C60.6813 11.6083 61.2519 12.9811 61.25 14.5833V55.4167C61.25 57.0208 60.6793 58.3946 59.5379 59.5379C58.3965 60.6813 57.0228 61.2519 55.4167 61.25H14.5833ZM14.5833 55.4167H55.4167V14.5833H14.5833V55.4167ZM35 35C35.8264 35 36.5196 34.72 37.0796 34.16C37.6396 33.6 37.9186 32.9078 37.9167 32.0833C37.9167 31.2569 37.6367 30.5647 37.0767 30.0067C36.5167 29.4486 35.8244 29.1686 35 29.1667C34.1736 29.1667 33.4814 29.4467 32.9233 30.0067C32.3653 30.5667 32.0853 31.2589 32.0833 32.0833C32.0833 32.9097 32.3633 33.6029 32.9233 34.1629C33.4833 34.7229 34.1756 35.0019 35 35Z" fill="#E33AFF"/>
</svg>
