<svg width="104" height="104" viewBox="0 0 104 104" fill="none" xmlns="http://www.w3.org/2000/svg">
<path d="M95.3333 4.33603H64.9999C62.519 4.32586 60.1135 5.18843 58.2043 6.77279C56.2952 8.35716 55.004 10.5624 54.5566 13.0027L50.5699 34.886C50.2944 36.4107 50.3573 37.9772 50.7542 39.4748C51.151 40.9725 51.8722 42.3646 52.8666 43.5527C53.8665 44.7414 55.1131 45.6982 56.5199 46.3567C57.9267 47.0152 59.46 47.3596 61.0133 47.366H73.6666L72.5833 50.226C71.7835 52.3466 71.5057 54.6286 71.7733 56.8791C72.0409 59.1297 72.8461 61.2829 74.1209 63.1568C75.3957 65.0307 77.1026 66.5704 79.0976 67.6459C81.0926 68.7214 83.3171 69.3011 85.5833 69.336C86.4242 69.3427 87.2489 69.1045 87.9568 68.6505C88.6647 68.1965 89.2252 67.5464 89.5699 66.7794L99.2766 44.8527C99.4976 44.375 99.6298 43.8611 99.6666 43.336V8.66936C99.6666 7.52009 99.2101 6.41789 98.3974 5.60523C97.5847 4.79257 96.4825 4.33603 95.3333 4.33603ZM90.9999 42.166L83.0699 60.0627C82.296 59.6416 81.6289 59.0486 81.1199 58.3294C80.61 57.6075 80.2875 56.7701 80.1816 55.8927C80.0757 55.0152 80.1897 54.1252 80.5133 53.3027L82.1599 48.9694C82.5931 47.8455 82.7407 46.6317 82.5895 45.4368C82.4382 44.2419 81.9928 43.1032 81.2933 42.1227C80.6043 41.146 79.6881 40.3516 78.6236 39.808C77.5592 39.2645 76.3784 38.9881 75.1833 39.0027H60.9266C60.6387 39.0035 60.3541 38.9419 60.0923 38.8223C59.8305 38.7026 59.5977 38.5276 59.4099 38.3094C59.0735 37.8473 58.9334 37.271 59.0199 36.706L63.0066 15.0394C62.9879 14.7708 63.0264 14.5013 63.1193 14.2487C63.2123 13.996 63.3577 13.7659 63.546 13.5735C63.7343 13.3811 63.9613 13.2308 64.2118 13.1324C64.4624 13.034 64.731 12.9898 64.9999 13.0027H90.9999V42.166ZM43.0733 56.5527H30.5499L31.6333 53.6927C32.4215 51.5597 32.6831 49.2679 32.396 47.0121C32.1088 44.7564 31.2814 42.6032 29.9839 40.7357C28.6864 38.8682 26.9573 37.3415 24.9435 36.2854C22.9296 35.2292 20.6906 34.6749 18.4166 34.6694C17.5757 34.6627 16.751 34.9009 16.0431 35.3549C15.3352 35.8089 14.7747 36.459 14.4299 37.226L4.72325 59.1527C4.47493 59.6973 4.34214 60.2875 4.33325 60.886V95.5527C4.33325 96.702 4.7898 97.8042 5.60246 98.6168C6.41511 99.4295 7.51731 99.886 8.66659 99.886H38.9999C41.4809 99.8962 43.8863 99.0336 45.7955 97.4493C47.7047 95.8649 48.9959 93.6596 49.4433 91.2194L53.4299 69.5527C53.7055 68.0281 53.6426 66.4615 53.2457 64.9639C52.8488 63.4662 52.1277 62.0741 51.1333 60.886C50.1936 59.6129 48.9834 58.5639 47.5897 57.8146C46.196 57.0653 44.6535 56.6343 43.0733 56.5527ZM40.9933 89.3994C40.9188 89.8662 40.6737 90.2887 40.3054 90.5849C39.9371 90.8812 39.4718 91.0301 38.9999 91.0027H12.9999V61.8394L20.9299 43.9427C21.7039 44.3638 22.371 44.9568 22.8799 45.676C23.3899 46.3979 23.7123 47.2353 23.8182 48.1127C23.9241 48.9902 23.8102 49.8802 23.4866 50.7027L21.8399 55.036C21.4067 56.1599 21.2591 57.3737 21.4104 58.5686C21.5617 59.7635 22.007 60.9022 22.7066 61.8827C23.3858 62.8754 24.2978 63.6867 25.3629 64.2457C26.428 64.8046 27.6137 65.0943 28.8166 65.0894H43.0733C43.3611 65.0886 43.6458 65.1501 43.9076 65.2698C44.1694 65.3895 44.4022 65.5645 44.5899 65.7827C44.9263 66.2448 45.0665 66.8211 44.9799 67.386L40.9933 89.3994Z" fill="#E33AFF"/>
</svg>
