<svg width="83" height="83" viewBox="0 0 83 83" fill="none" xmlns="http://www.w3.org/2000/svg">
<g clip-path="url(#clip0_356_1903)">
<path d="M53.5005 39.055C53.1794 38.7337 52.7981 38.4787 52.3785 38.3048C51.9589 38.1308 51.5092 38.0411 51.0549 38.041C50.6007 38.0408 50.1508 38.1301 49.7311 38.3038C49.3114 38.4775 48.93 38.7322 48.6086 39.0532C48.2873 39.3743 48.0324 39.7556 47.8584 40.1752C47.6844 40.5948 47.5948 41.0445 47.5947 41.4988C47.5945 41.953 47.6838 42.4029 47.8575 42.8226C48.0312 43.2423 48.2858 43.6237 48.6069 43.9451C49.2554 44.594 50.1351 44.9587 51.0525 44.959C51.9699 44.9594 52.8498 44.5953 53.4987 43.9468C54.1477 43.2983 54.5124 42.4186 54.5127 41.5012C54.513 40.5838 54.1489 39.7039 53.5005 39.055ZM55.9455 31.7198C56.2645 31.3895 56.6461 31.1261 57.0681 30.9448C57.49 30.7636 57.9438 30.6682 58.403 30.6642C58.8622 30.6602 59.3176 30.7477 59.7426 30.9216C60.1676 31.0955 60.5537 31.3523 60.8785 31.677C61.2032 32.0017 61.46 32.3878 61.6338 32.8128C61.8077 33.2379 61.8952 33.6933 61.8912 34.1524C61.8872 34.6116 61.7919 35.0654 61.6106 35.4874C61.4294 35.9093 61.1659 36.2909 60.8356 36.6099C60.1833 37.2399 59.3097 37.5885 58.403 37.5806C57.4962 37.5727 56.6288 37.209 55.9876 36.5678C55.3464 35.9266 54.9827 35.0592 54.9748 34.1524C54.967 33.2457 55.3155 32.3721 55.9455 31.7198ZM68.1707 39.055C67.8517 38.7247 67.4701 38.4612 67.0482 38.28C66.6262 38.0987 66.1724 38.0033 65.7132 37.9993C65.254 37.9953 64.7986 38.0828 64.3736 38.2567C63.9486 38.4306 63.5625 38.6874 63.2378 39.0121C62.913 39.3368 62.6563 39.723 62.4824 40.148C62.3085 40.573 62.221 41.0284 62.225 41.4876C62.229 41.9468 62.3244 42.4006 62.5056 42.8225C62.6869 43.2444 62.9503 43.626 63.2806 43.9451C63.9329 44.575 64.8065 44.9236 65.7132 44.9157C66.62 44.9078 67.4874 44.5441 68.1286 43.9029C68.7698 43.2617 69.1335 42.3943 69.1414 41.4876C69.1493 40.5808 68.8007 39.7072 68.1707 39.055ZM55.9455 46.3901C56.2668 46.069 56.6482 45.8144 57.068 45.6407C57.4877 45.467 57.9375 45.3777 58.3918 45.3778C58.846 45.378 59.2958 45.4676 59.7154 45.6416C60.135 45.8156 60.5162 46.0705 60.8373 46.3918C61.1584 46.7131 61.4131 47.0946 61.5867 47.5143C61.7604 47.934 61.8497 48.3838 61.8496 48.8381C61.8494 49.2923 61.7598 49.7421 61.5858 50.1617C61.4118 50.5813 61.1569 50.9626 60.8356 51.2836C60.1867 51.9321 59.3067 52.2962 58.3893 52.2959C57.4719 52.2956 56.5922 51.9308 55.9438 51.2819C55.2953 50.633 54.9312 49.753 54.9315 48.8356C54.9318 47.9183 55.2966 47.0386 55.9455 46.3901ZM20.75 44.9583H13.8334V38.0417H20.75V31.125H27.6667V38.0417H34.5834V44.9583H27.6667V51.875H20.75V44.9583Z" fill="#E33AFF"/>
<path fill-rule="evenodd" clip-rule="evenodd" d="M24.2083 17.2891C17.7879 17.2891 11.6304 19.8396 7.09046 24.3795C2.55051 28.9195 0 35.0769 0 41.4974C0 47.9178 2.55051 54.0753 7.09046 58.6153C11.6304 63.1552 17.7879 65.7057 24.2083 65.7057H58.7917C61.9707 65.7057 65.1187 65.0796 68.0558 63.863C70.9929 62.6464 73.6616 60.8632 75.9095 58.6153C78.1575 56.3673 79.9407 53.6986 81.1572 50.7615C82.3738 47.8244 83 44.6765 83 41.4974C83 38.3183 82.3738 35.1704 81.1572 32.2333C79.9407 29.2962 78.1575 26.6275 75.9095 24.3795C73.6616 22.1316 70.9929 20.3484 68.0558 19.1318C65.1187 17.9152 61.9707 17.2891 58.7917 17.2891H24.2083ZM58.7917 24.2057H24.2083C19.6223 24.2057 15.2241 26.0275 11.9813 29.2703C8.73846 32.5132 6.91667 36.9114 6.91667 41.4974C6.91667 46.0834 8.73846 50.4816 11.9813 53.7245C15.2241 56.9673 19.6223 58.7891 24.2083 58.7891H58.7917C63.3777 58.7891 67.7759 56.9673 71.0187 53.7245C74.2615 50.4816 76.0833 46.0834 76.0833 41.4974C76.0833 36.9114 74.2615 32.5132 71.0187 29.2703C67.7759 26.0275 63.3777 24.2057 58.7917 24.2057Z" fill="#E33AFF"/>
</g>
<defs>
<clipPath id="clip0_356_1903">
<rect width="83" height="83" fill="white"/>
</clipPath>
</defs>
</svg>
