<svg width="70" height="70" viewBox="0 0 70 70" fill="none" xmlns="http://www.w3.org/2000/svg">
<path d="M29.1667 37.9193H8.75004C7.97649 37.9193 7.23463 38.2266 6.68765 38.7735C6.14066 39.3205 5.83337 40.0624 5.83337 40.8359V61.2526C5.83337 62.0262 6.14066 62.768 6.68765 63.315C7.23463 63.862 7.97649 64.1693 8.75004 64.1693H29.1667C29.9403 64.1693 30.6821 63.862 31.2291 63.315C31.7761 62.768 32.0834 62.0262 32.0834 61.2526V40.8359C32.0834 40.0624 31.7761 39.3205 31.2291 38.7735C30.6821 38.2266 29.9403 37.9193 29.1667 37.9193ZM26.25 58.3359H11.6667V43.7526H26.25V58.3359ZM61.25 5.83594H40.8334C40.0598 5.83594 39.318 6.14323 38.771 6.69021C38.224 7.23719 37.9167 7.97906 37.9167 8.7526V29.1693C37.9167 29.9428 38.224 30.6847 38.771 31.2317C39.318 31.7786 40.0598 32.0859 40.8334 32.0859H61.25C62.0236 32.0859 62.7655 31.7786 63.3124 31.2317C63.8594 30.6847 64.1667 29.9428 64.1667 29.1693V8.7526C64.1667 7.97906 63.8594 7.23719 63.3124 6.69021C62.7655 6.14323 62.0236 5.83594 61.25 5.83594ZM58.3334 26.2526H43.75V11.6693H58.3334V26.2526ZM61.25 37.9193H40.8334C40.0598 37.9193 39.318 38.2266 38.771 38.7735C38.224 39.3205 37.9167 40.0624 37.9167 40.8359V61.2526C37.9167 62.0262 38.224 62.768 38.771 63.315C39.318 63.862 40.0598 64.1693 40.8334 64.1693H61.25C62.0236 64.1693 62.7655 63.862 63.3124 63.315C63.8594 62.768 64.1667 62.0262 64.1667 61.2526V40.8359C64.1667 40.0624 63.8594 39.3205 63.3124 38.7735C62.7655 38.2266 62.0236 37.9193 61.25 37.9193ZM58.3334 58.3359H43.75V43.7526H58.3334V58.3359ZM29.1667 5.83594H8.75004C7.97649 5.83594 7.23463 6.14323 6.68765 6.69021C6.14066 7.23719 5.83337 7.97906 5.83337 8.7526V29.1693C5.83337 29.9428 6.14066 30.6847 6.68765 31.2317C7.23463 31.7786 7.97649 32.0859 8.75004 32.0859H29.1667C29.9403 32.0859 30.6821 31.7786 31.2291 31.2317C31.7761 30.6847 32.0834 29.9428 32.0834 29.1693V8.7526C32.0834 7.97906 31.7761 7.23719 31.2291 6.69021C30.6821 6.14323 29.9403 5.83594 29.1667 5.83594ZM26.25 26.2526H11.6667V11.6693H26.25V26.2526Z" fill="#E33AFF"/>
</svg>
