<svg width="55" height="55" viewBox="0 0 55 55" fill="none" xmlns="http://www.w3.org/2000/svg">
<path d="M18.0104 24.2445L24.2812 17.9007L20.1979 13.7445L19.0312 14.9111C18.4965 15.4458 17.8286 15.7258 17.0275 15.7511C16.2264 15.7764 15.5332 15.4964 14.9479 14.9111C14.3646 14.3278 14.0729 13.6356 14.0729 12.8345C14.0729 12.0333 14.3646 11.3402 14.9479 10.7549L16.0417 9.66113L12.7604 6.37987L6.41667 12.7236L18.0104 24.2445ZM41.9271 48.234L48.2708 41.8903L44.9896 38.609L43.8229 39.7028C43.2396 40.2861 42.559 40.5778 41.7813 40.5778C41.0035 40.5778 40.3229 40.2861 39.7396 39.7028C39.1562 39.1195 38.8646 38.4389 38.8646 37.6611C38.8646 36.8834 39.1562 36.2028 39.7396 35.6195L40.8333 34.4528L36.6771 30.3695L30.4063 36.6403L41.9271 48.234ZM4.01042 53.557C3.18403 53.557 2.49181 53.277 1.93375 52.717C1.37569 52.157 1.09569 51.4647 1.09375 50.6403V42.4007C1.09375 42.0118 1.16667 41.6356 1.3125 41.272C1.45833 40.9083 1.67708 40.5797 1.96875 40.2861L13.8542 28.4007L1.23958 15.7861C0.413194 14.9597 0 13.9389 0 12.7236C0 11.5083 0.413194 10.4875 1.23958 9.66113L9.69792 1.20279C10.5243 0.376403 11.5451 -0.0241524 12.7604 0.00112538C13.9757 0.0264032 14.9965 0.451264 15.8229 1.27571L28.5104 13.8903L39.5208 2.80696C40.1042 2.22362 40.7604 1.78613 41.4896 1.49446C42.2188 1.20279 42.9722 1.05696 43.75 1.05696C44.5278 1.05696 45.2812 1.20279 46.0104 1.49446C46.7396 1.78613 47.3958 2.22362 47.9792 2.80696L51.8438 6.74446C52.4271 7.32779 52.8646 7.98404 53.1563 8.71321C53.4479 9.44238 53.5938 10.1958 53.5938 10.9736C53.5938 11.7514 53.4479 12.4932 53.1563 13.199C52.8646 13.9049 52.4271 14.5485 51.8438 15.1299L40.8333 26.2132L53.4479 38.8278C54.2743 39.6542 54.6875 40.675 54.6875 41.8903C54.6875 43.1056 54.2743 44.1264 53.4479 44.9528L44.9896 53.4111C44.1632 54.2375 43.1424 54.6507 41.9271 54.6507C40.7118 54.6507 39.691 54.2375 38.8646 53.4111L26.25 40.7965L14.3646 52.682C14.0729 52.9736 13.7453 53.1924 13.3817 53.3382C13.0181 53.484 12.6408 53.557 12.25 53.557H4.01042ZM6.92708 47.7236H11.0104L39.5938 19.2132L35.4375 15.057L6.92708 43.6403V47.7236ZM37.5521 17.1715L35.4375 15.057L39.5938 19.2132L37.5521 17.1715Z" fill="#E33AFF"/>
</svg>
