<svg width="70" height="70" viewBox="0 0 70 70" fill="none" xmlns="http://www.w3.org/2000/svg">
<path d="M19.6875 39.375C17.5243 39.375 15.4096 40.0165 13.611 41.2183C11.8123 42.4201 10.4104 44.1283 9.5826 46.1269C8.75476 48.1255 8.53816 50.3246 8.96019 52.4463C9.38221 54.568 10.4239 56.5168 11.9535 58.0465C13.4832 59.5761 15.4321 60.6178 17.5537 61.0398C19.6754 61.4619 21.8746 61.2453 23.8731 60.4174C25.8717 59.5896 27.5799 58.1877 28.7817 56.389C29.9836 54.5904 30.625 52.4757 30.625 50.3125C30.625 48.8762 30.3421 47.4539 29.7925 46.1269C29.2428 44.7999 28.4371 43.5942 27.4215 42.5785C26.4059 41.5629 25.2001 40.7572 23.8731 40.2076C22.5461 39.6579 21.1239 39.375 19.6875 39.375ZM19.6875 54.6875C18.8222 54.6875 17.9764 54.4309 17.2569 53.9502C16.5374 53.4694 15.9767 52.7862 15.6456 51.9867C15.3144 51.1873 15.2278 50.3076 15.3966 49.459C15.5654 48.6103 15.9821 47.8308 16.5939 47.2189C17.2058 46.6071 17.9853 46.1904 18.834 46.0216C19.6827 45.8528 20.5623 45.9394 21.3618 46.2705C22.1612 46.6017 22.8445 47.1624 23.3252 47.8819C23.8059 48.6013 24.0625 49.4472 24.0625 50.3125C24.0625 51.4728 23.6016 52.5856 22.7811 53.4061C21.9606 54.2266 20.8478 54.6875 19.6875 54.6875ZM10.9375 35C10.2882 35.0005 9.65329 34.8083 9.11321 34.4478C8.57314 34.0873 8.15217 33.5747 7.90361 32.9748C7.65505 32.3749 7.59006 31.7147 7.71689 31.0779C7.84371 30.4411 8.15663 29.8562 8.61604 29.3973L11.7578 26.25L8.61604 23.1027C7.99962 22.4863 7.65332 21.6503 7.65332 20.7785C7.65332 20.3469 7.73834 19.9194 7.90352 19.5207C8.06871 19.1219 8.31082 18.7595 8.61604 18.4543C8.92126 18.1491 9.28361 17.907 9.6824 17.7418C10.0812 17.5766 10.5086 17.4916 10.9403 17.4916C11.812 17.4916 12.6481 17.8379 13.2645 18.4543L16.4063 21.6016L19.5535 18.4598C20.17 17.8433 21.006 17.497 21.8778 17.497C22.7495 17.497 23.5856 17.8433 24.202 18.4598C24.8184 19.0762 25.1647 19.9122 25.1647 20.784C25.1647 21.6557 24.8184 22.4918 24.202 23.1082L21.0547 26.25L24.2047 29.3973C24.8211 30.0137 25.1674 30.8497 25.1674 31.7215C25.1674 32.5932 24.8211 33.4293 24.2047 34.0457C23.5883 34.6621 22.7522 35.0084 21.8805 35.0084C21.0087 35.0084 20.1727 34.6621 19.5563 34.0457L16.4063 30.8984L13.259 34.0402C12.9541 34.3448 12.5921 34.5864 12.1938 34.7511C11.7954 34.9158 11.3686 35.0003 10.9375 35ZM61.384 55.6473C62.0004 56.2637 62.3467 57.0997 62.3467 57.9715C62.3467 58.8432 62.0004 59.6793 61.384 60.2957C60.7676 60.9121 59.9315 61.2584 59.0598 61.2584C58.188 61.2584 57.352 60.9121 56.7356 60.2957L53.5938 57.1484L50.4465 60.2984C49.8301 60.9149 48.994 61.2612 48.1223 61.2612C47.2505 61.2612 46.4145 60.9149 45.7981 60.2984C45.1817 59.682 44.8354 58.846 44.8354 57.9742C44.8354 57.1025 45.1817 56.2664 45.7981 55.65L48.9453 52.5L45.7953 49.3527C45.1789 48.7363 44.8326 47.9003 44.8326 47.0285C44.8326 46.1568 45.1789 45.3207 45.7953 44.7043C46.4118 44.0879 47.2478 43.7416 48.1196 43.7416C48.9913 43.7416 49.8274 44.0879 50.4438 44.7043L53.5938 47.8516L56.741 44.7016C57.3575 44.0851 58.1935 43.7388 59.0653 43.7388C59.937 43.7388 60.7731 44.0851 61.3895 44.7016C62.0059 45.318 62.3522 46.154 62.3522 47.0258C62.3522 47.8975 62.0059 48.7336 61.3895 49.35L58.2422 52.5L61.384 55.6473ZM49.5168 30.3215C48.0922 36.6105 43.1375 42.2242 37.1875 44.327C36.367 44.617 35.4648 44.5693 34.6794 44.1942C33.8941 43.819 33.2899 43.1473 32.9998 42.3268C32.7098 41.5062 32.7575 40.604 33.1326 39.8187C33.5077 39.0333 34.1795 38.4291 35 38.1391C38.8473 36.7719 42.1832 32.9684 43.1129 28.8695C43.761 26.0094 43.2223 23.1711 41.5598 20.5188V22.9797C41.5598 23.8499 41.2141 24.6845 40.5987 25.2999C39.9834 25.9152 39.1488 26.2609 38.2785 26.2609C37.4083 26.2609 36.5737 25.9152 35.9583 25.2999C35.343 24.6845 34.9973 23.8499 34.9973 22.9797V12.0312C34.9973 11.161 35.343 10.3264 35.9583 9.71106C36.5737 9.0957 37.4083 8.75 38.2785 8.75H49.216C50.0863 8.75 50.9209 9.0957 51.5362 9.71106C52.1516 10.3264 52.4973 11.161 52.4973 12.0312C52.4973 12.9015 52.1516 13.7361 51.5362 14.3514C50.9209 14.9668 50.0863 15.3125 49.216 15.3125H45.9375C49.4293 19.8543 50.7008 25.0906 49.5168 30.3215Z" fill="#E33AFF"/>
</svg>
