<svg width="70" height="70" viewBox="0 0 70 70" fill="none" xmlns="http://www.w3.org/2000/svg">
<g clip-path="url(#clip0_356_1897)">
<path d="M36.6976 10.1732C41.2447 6.6936 46.6026 4.64902 51.0418 7.21277C55.4809 9.7736 56.3909 15.4378 55.6501 21.1136C55.5626 21.8165 55.443 22.5399 55.2972 23.2778C56.0088 23.5228 56.6972 23.7824 57.3476 24.0536C62.6326 26.2528 67.0834 29.8724 67.0834 34.9969C67.0834 40.1215 62.6326 43.7411 57.3476 45.9403C56.6943 46.2115 56.0088 46.4711 55.2972 46.7161C55.443 47.454 55.5597 48.1744 55.6501 48.8803C56.3909 54.5561 55.4809 60.2203 51.0418 62.7811C46.6055 65.3449 41.2418 63.3003 36.6976 59.8236C36.1171 59.378 35.551 58.914 35.0001 58.4324C34.4313 58.9282 33.8655 59.3919 33.3026 59.8236C28.7584 63.3003 23.3976 65.3449 18.9584 62.7811C14.5222 60.2203 13.6122 54.5561 14.3501 48.8803C14.4457 48.1553 14.5643 47.4335 14.7059 46.7161C13.9913 46.4711 13.3059 46.2115 12.6526 45.9403C7.36758 43.7411 2.91675 40.1215 2.91675 34.9969C2.91675 29.8724 7.36758 26.2528 12.6526 24.0536C13.3059 23.7824 13.9942 23.5228 14.7059 23.2778C14.5601 22.5399 14.4434 21.8194 14.3501 21.1136C13.6122 15.4378 14.5222 9.7736 18.9584 7.21277C23.3976 4.64902 28.7584 6.6936 33.3026 10.1732C33.8655 10.6019 34.4313 11.0657 35.0001 11.5615C35.5688 11.0657 36.1376 10.6019 36.6976 10.1732ZM20.3584 48.2299C20.2709 48.7111 20.198 49.1807 20.1367 49.6328C19.4572 54.8624 20.7376 57.0703 21.878 57.7294C23.0213 58.3886 25.5734 58.3944 29.7618 55.1919C30.1378 54.903 30.5064 54.6044 30.8672 54.2965C29.4285 52.6656 28.0744 50.9619 26.8101 49.1924C24.6445 48.9819 22.4911 48.6607 20.3584 48.2299ZM49.6505 48.2299C47.638 48.6382 45.4855 48.9649 43.1988 49.1924C41.8572 51.059 40.5009 52.7624 39.1418 54.2965C39.5122 54.6144 39.8826 54.909 40.2443 55.189C44.4326 58.3944 46.9876 58.3886 48.128 57.7294C49.2713 57.0703 50.5488 54.8624 49.8693 49.6328C49.8082 49.1633 49.7353 48.6956 49.6505 48.2299ZM35.0001 26.2469C33.2734 26.2469 31.6168 26.2994 30.0359 26.3957C29.1609 27.7169 28.2859 29.1286 27.4226 30.6249C26.5935 32.0588 25.8085 33.5178 25.0688 34.9999C25.7747 36.4174 26.5593 37.8757 27.4226 39.3719C28.2859 40.8682 29.158 42.2769 30.0359 43.6011C33.3435 43.796 36.6596 43.796 39.9672 43.6011C40.8422 42.2769 41.7172 40.8682 42.5776 39.3719C43.4077 37.938 44.1936 36.479 44.9343 34.9969C44.1936 33.5149 43.4077 32.0558 42.5776 30.6219C41.7509 29.1868 40.8804 27.7774 39.9672 26.3957C38.3134 26.2958 36.6569 26.2462 35.0001 26.2469ZM16.2167 28.9303C15.7712 29.0894 15.3297 29.2596 14.8926 29.4407C10.0217 31.4649 8.75008 33.6786 8.75008 34.9969C8.75008 36.3153 10.0247 38.529 14.8926 40.5532C15.3155 40.7282 15.7588 40.9003 16.2167 41.0636C16.9107 39.0018 17.71 36.9769 18.6113 34.9969C17.711 33.0169 16.9098 30.992 16.2167 28.9303ZM53.7834 28.9303C53.0904 30.992 52.2921 33.0169 51.3918 34.9969C52.3368 37.0882 53.1359 39.1182 53.7834 41.0636C54.229 40.9047 54.6706 40.7345 55.1076 40.5532C59.9784 38.529 61.2501 36.3153 61.2501 34.9969C61.2501 33.6786 59.9784 31.4678 55.1076 29.4407C54.6706 29.2593 54.2291 29.0891 53.7834 28.9303ZM35.0001 30.6219C36.1604 30.6219 37.2732 31.0829 38.0937 31.9033C38.9142 32.7238 39.3751 33.8366 39.3751 34.9969C39.3751 36.1573 38.9142 37.2701 38.0937 38.0905C37.2732 38.911 36.1604 39.3719 35.0001 39.3719C33.8398 39.3719 32.727 38.911 31.9065 38.0905C31.086 37.2701 30.6251 36.1573 30.6251 34.9969C30.6251 33.8366 31.086 32.7238 31.9065 31.9033C32.727 31.0829 33.8398 30.6219 35.0001 30.6219ZM21.8751 12.2644C20.7347 12.9236 19.4543 15.1315 20.1338 20.3611C20.1922 20.8161 20.268 21.2828 20.3555 21.764C22.3651 21.3557 24.5205 21.029 26.8072 20.8015C28.0711 19.0317 29.4253 17.3281 30.8643 15.6974C30.5034 15.3906 30.1348 15.093 29.7588 14.8049C25.5705 11.5994 23.0184 11.6053 21.8751 12.2644ZM48.1251 12.2644C46.9847 11.6053 44.4297 11.6024 40.2413 14.8049C39.8663 15.0929 39.4987 15.3905 39.1388 15.6974C40.498 17.2315 41.8572 18.9378 43.193 20.8015C45.4797 21.029 47.638 21.3557 49.6476 21.764C49.7323 21.2993 49.8053 20.8325 49.8663 20.364C50.5488 15.1344 49.2684 12.9236 48.1251 12.2644Z" fill="#E33AFF"/>
</g>
<defs>
<clipPath id="clip0_356_1897">
<rect width="70" height="70" fill="white"/>
</clipPath>
</defs>
</svg>
