<svg width="102" height="102" viewBox="0 0 102 102" fill="none" xmlns="http://www.w3.org/2000/svg">
<path fill-rule="evenodd" clip-rule="evenodd" d="M48.0251 24.4375L62.8958 50.201L66.7293 43.5625C69.1816 39.3125 75.3143 39.3125 77.7708 43.5625L96.1733 75.4375C96.7329 76.4066 97.0274 77.5059 97.0274 78.625C97.0274 79.744 96.7329 80.8433 96.1734 81.8124C95.6139 82.7815 94.8091 83.5863 93.84 84.1459C92.8709 84.7054 91.7716 85 90.6526 85H72.2501V84.9915L71.9441 85H13.0561C11.9367 85.0007 10.8369 84.7067 9.86716 84.1474C8.89747 83.5882 8.09212 82.7835 7.53211 81.8143C6.9721 80.845 6.67718 79.7454 6.677 78.626C6.67682 77.5066 6.97139 76.4069 7.53109 75.4375L36.9793 24.4375C39.4316 20.1875 45.5643 20.1875 48.0208 24.4375M42.5001 51.8585L38.4838 54.536L37.9908 54.8165C37.4098 55.1004 36.7717 55.2479 36.1251 55.2479C35.4785 55.2479 34.8403 55.1004 34.2593 54.8165L33.7663 54.536L30.6256 52.4407L16.7366 76.5H68.2636L54.3746 52.445L51.2296 54.536L50.7408 54.8165C50.1598 55.1004 49.5217 55.2479 48.8751 55.2479C48.2285 55.2479 47.5903 55.1004 47.0093 54.8165L46.5163 54.536L42.5001 51.8585ZM72.2501 51L67.8046 58.701L77.4648 75.4375L77.7411 75.9645L77.9578 76.5H86.9721L72.2501 51ZM42.5001 31.875L34.8841 45.067L36.1251 45.8915L40.1413 43.214C40.8397 42.748 41.6605 42.4994 42.5001 42.4994C43.3397 42.4994 44.1604 42.748 44.8588 43.214L48.8751 45.8915L50.1161 45.067L42.5001 31.875Z" fill="#E33AFF"/>
</svg>
