<svg width="106" height="106" viewBox="0 0 106 106" fill="none" xmlns="http://www.w3.org/2000/svg">
<path d="M53 13.2469L55.173 8.17219C54.4863 7.87817 53.747 7.72656 53 7.72656C52.253 7.72656 51.5137 7.87817 50.827 8.17219L53 13.2469ZM53 92.7469L50.2617 97.539C51.9577 98.5107 54.0423 98.5107 55.7383 97.539L53 92.7469ZM50.827 8.17219L22.5868 20.2739L26.9328 30.4234L55.173 18.3217L50.827 8.17219ZM16.5625 29.4119V59.7103H27.6042V29.4119H16.5625ZM32.6966 87.5044L50.2617 97.5434L55.7383 87.9593L38.1732 77.9202L32.6966 87.5044ZM55.7383 97.5434L73.3034 87.5088L67.8267 77.9246L50.2617 87.9593L55.7383 97.5434ZM89.4375 59.7059V29.4119H78.3958V59.7103L89.4375 59.7059ZM83.4132 20.2783L55.173 8.17661L50.827 18.3261L79.0627 30.4278L83.4132 20.2783ZM89.4375 29.4119C89.4375 25.4369 87.0702 21.8462 83.4132 20.2783L79.0627 30.4278C78.8644 30.3422 78.6955 30.2004 78.577 30.0199C78.4584 29.8393 78.3955 29.6279 78.3958 29.4119H89.4375ZM73.3034 87.5088C78.2048 84.708 82.2787 80.6612 85.1121 75.7786C87.9454 70.896 89.4377 65.351 89.4375 59.7059H78.3958C78.3959 63.404 77.4183 67.0365 75.5622 70.2352C73.7062 73.4339 71.0375 76.0895 67.8267 77.9246L73.3034 87.5088ZM16.5625 59.7014C16.5623 65.3466 18.0545 70.8915 20.8879 75.7742C23.7213 80.6568 27.7952 84.7036 32.6966 87.5044L38.1732 77.9202C34.9618 76.0847 32.2928 73.4328 30.4367 70.2333C28.5805 67.0338 27.6034 63.4004 27.6042 59.7014H16.5625ZM22.5868 20.2739C20.7984 21.04 19.2741 22.3143 18.2032 23.9388C17.1323 25.5632 16.5618 27.4663 16.5625 29.4119H27.6042C27.6042 29.8536 27.3392 30.2467 26.9328 30.4234L22.5868 20.2739Z" fill="#E33AFF"/>
</svg>
