<svg width="70" height="70" viewBox="0 0 70 70" fill="none" xmlns="http://www.w3.org/2000/svg">
<path d="M52.5 45.9375C51.4062 45.9375 50.3125 45.5 49.4375 44.625L42.875 38.0625C42 37.1875 41.5625 36.0938 41.5625 35C41.5625 33.9062 42 32.8125 42.875 31.9375L49.4375 25.375C50.3125 24.5 51.4062 24.0625 52.5 24.0625C53.5938 24.0625 54.6875 24.5 55.5625 25.375L62.125 31.9375C63 32.8125 63.4375 33.9062 63.4375 35C63.4375 36.0938 63 37.1875 62.125 38.0625L55.5625 44.625C54.6875 45.5 53.5938 45.9375 52.5 45.9375ZM52.5 28.4375L45.9375 35L52.5 41.5625L59.0625 35L52.5 28.4375ZM35 28.4375C33.9062 28.4375 32.8125 28 31.9375 27.125L25.375 20.5625C24.5 19.6875 24.0625 18.5938 24.0625 17.5C24.0625 16.4062 24.5 15.3125 25.375 14.4375L31.9375 7.875C32.8125 7 33.9062 6.5625 35 6.5625C36.0938 6.5625 37.1875 7 38.0625 7.875L44.625 14.4375C45.5 15.3125 45.9375 16.4062 45.9375 17.5C45.9375 18.5938 45.5 19.6875 44.625 20.5625L38.0625 27.125C37.1875 28 36.0938 28.4375 35 28.4375ZM35 10.9375L28.4375 17.5L35 24.0625L41.5625 17.5L35 10.9375ZM35 63.4375C33.9062 63.4375 32.8125 63 31.9375 62.125L25.375 55.5625C24.5 54.6875 24.0625 53.5938 24.0625 52.5C24.0625 51.4062 24.5 50.3125 25.375 49.4375L31.9375 42.875C32.8125 42 33.9062 41.5625 35 41.5625C36.0938 41.5625 37.1875 42 38.0625 42.875L44.625 49.4375C45.5 50.3125 45.9375 51.4062 45.9375 52.5C45.9375 53.5938 45.5 54.6875 44.625 55.5625L38.0625 62.125C37.1875 63 36.0938 63.4375 35 63.4375ZM35 45.9375L28.4375 52.5L35 59.0625L41.5625 52.5L35 45.9375ZM17.5 45.9375C16.4062 45.9375 15.3125 45.5 14.4375 44.625L7.875 38.0625C7 37.1875 6.5625 36.0938 6.5625 35C6.5625 33.9062 7 32.8125 7.875 31.9375L14.4375 25.375C15.3125 24.5 16.4062 24.0625 17.5 24.0625C18.5938 24.0625 19.6875 24.5 20.5625 25.375L27.125 31.9375C28 32.8125 28.4375 33.9062 28.4375 35C28.4375 36.0938 28 37.1875 27.125 38.0625L20.5625 44.625C19.6875 45.5 18.5938 45.9375 17.5 45.9375ZM17.5 28.4375L10.9375 35L17.5 41.5625L24.0625 35L17.5 28.4375Z" fill="#E33AFF"/>
</svg>
