<svg width="100" height="100" viewBox="0 0 100 100" fill="none" xmlns="http://www.w3.org/2000/svg">
<path d="M92.5781 30.2617C91.5514 29.0986 90.2889 28.1672 88.8746 27.5294C87.4603 26.8916 85.9265 26.562 84.375 26.5625H64.0625V21.875C64.0573 17.3182 62.2449 12.9495 59.0227 9.72731C55.8005 6.50515 51.4318 4.69267 46.875 4.6875C46.0048 4.6876 45.1519 4.92992 44.4116 5.38732C43.6713 5.84473 43.073 6.49916 42.6836 7.27734L28.3516 35.9375H12.5C10.428 35.9375 8.44086 36.7606 6.97573 38.2257C5.5106 39.6909 4.6875 41.678 4.6875 43.75V78.125C4.6875 80.197 5.5106 82.1841 6.97573 83.6493C8.44086 85.1144 10.428 85.9375 12.5 85.9375H79.6875C82.3533 85.9371 84.9271 84.9632 86.9254 83.1987C88.9236 81.4342 90.2087 79.0007 90.5391 76.3555L95.2266 38.8555C95.4194 37.3172 95.283 35.7554 94.8264 34.2738C94.3698 32.7922 93.6034 31.4246 92.5781 30.2617ZM14.0625 45.3125H26.5625V76.5625H14.0625V45.3125ZM85.9375 37.6953L81.25 75.1953C81.2022 75.575 81.0167 75.924 80.7287 76.1759C80.4407 76.428 80.0702 76.5655 79.6875 76.5625H35.9375V41.7305L49.5391 14.5312C51.0475 15.0784 52.3509 16.0768 53.272 17.3908C54.1932 18.7047 54.6874 20.2704 54.6875 21.875V31.25C54.6875 32.4932 55.1814 33.6855 56.0604 34.5646C56.9395 35.4436 58.1318 35.9375 59.375 35.9375H84.375C84.5977 35.9358 84.8182 35.9816 85.0218 36.0721C85.2253 36.1625 85.4071 36.2954 85.5551 36.4619C85.7031 36.6283 85.8137 36.8245 85.8797 37.0372C85.9456 37.25 85.9653 37.4743 85.9375 37.6953Z" fill="#E33AFF"/>
</svg>
